# xmcd
#
# Track frame offsets:
#	150
#	15473
#	32884
#	53324
#	75439
#	94303
#	117582
#	132772
#	158018
#	183327
#	207254
#
# Disc length: 3108 seconds
#
# Revision: 0
# Processed by: cddbd v1.5.2PL0 Copyright (c) Steve Scherf et al.
# Submitted via: dBpowerAMP V4.0
#
DISCID=810c220b
DTITLE=Derrin Nauendorf - The Rattling Wheel
DYEAR=2006
DGENRE=Blues
TTITLE0=Universe Demands
TTITLE1=Shipwrecked
TTITLE2=I Won't Turn My Back
TTITLE3=Where Two Men Go Tonight
TTITLE4=Queensland
TTITLE5=Deliver Me An Angel
TTITLE6=Reason You Came Here
TTITLE7=My Hurricane
TTITLE8=Shatter Like Stars
TTITLE9=Long Road Home
TTITLE10=All the Faces
EXTD=
EXTT0=
EXTT1=
EXTT2=
EXTT3=
EXTT4=
EXTT5=
EXTT6=
EXTT7=
EXTT8=
EXTT9=
EXTT10=
PLAYORDER=
